<svg xmlns="http://www.w3.org/2000/svg" xmlns:xlink="http://www.w3.org/1999/xlink" version="1.1" x="0px" y="0px" viewBox="0 0 64 80" style="enable-background:new 0 0 64 64;" xml:space="preserve"><g><path d="M54,58.2c0,1-0.5,1.9-1.2,2.6L52.6,61c-0.5,0.4-0.9,0.9-1.4,1.3c-0.7,0.6-1.4,0.9-2.2,0.9h-0.2c-1.2-0.1-2.1-0.5-2.8-1.4   l-3.3-4.1c-2-2.4-3.9-4.9-5.9-7.3c-2.8,1.6-5.8,2.4-8.9,2.4c-1.5,0-3-0.2-4.5-0.6c-4.6-1.2-8.5-4.1-11-8.3C9,38,9.2,30.5,13,24.8   c0.6,1,1.6,1.7,2.7,1.8c-3.1,4.7-3.3,10.8-0.4,15.6c2,3.4,5.2,5.8,9,6.8c3.8,1,7.8,0.4,11.1-1.6c6.5-3.8,8.9-11.8,6-18.5   c-0.4,0.1-0.8,0.1-1.2,0.1c-1.5,0-3.1-0.6-4.7-1.7c-0.9-0.6-1.6-1.3-2.2-2c-0.2-0.3-0.4-0.6-0.4-0.9c-2.8-2.4-5.5-4.8-8.1-7.1   c-1.5-1.4-2.5-3.3-2.5-5.4c-0.1-1.8,0.6-3.4,1.7-4.6c0.2-0.2,0.3-0.4,0.5-0.6c0.3-0.4,0.6-0.8,1.1-1.1c0.6-0.4,1.2-0.5,1.8-0.4   c0.6,0.1,1,0.5,1.4,1.1c0.7,1.2,0,2.6-1,3.2l-0.1,0c-0.4,0.2-0.8,0.3-1.1,0.3c-0.2,0-0.3,0-0.3,0c-0.2,0-0.3,0.3-0.4,0.7   c-0.5,1.6-0.1,2.9,1.1,4c3,2.7,6.1,5.2,8.1,6.9l0.2,0.2c0.6,0.1,1.1,0.3,1.4,0.8c0.1,0.1,0.7,0.7,1.4,1.3l0.4,0.2   c1.1,0.7,2,0.8,2.7,0.4l0.1-0.1c0.5-0.3,1.9-1.5,0.5-4.9c-0.2-0.6-0.2-1.3,0.1-1.9l-0.1-0.8c-0.3-1.7-0.6-3.4-0.9-5.1   c-0.1-0.5-0.2-0.9-0.2-1.5c-0.3-2-0.6-4.3-2.1-5.5c-1.2-0.9-2-1-2.3-0.9c-0.1,0.1-0.3,0.2-0.4,0.4c-0.2,0.3-0.5,0.6-0.9,0.8   c-0.3,0.2-0.6,0.3-0.9,0.3c-0.9,0.1-1.6-0.2-2.1-0.9c-0.5-0.7-0.5-1.6-0.1-2.5c0.2-0.4,0.4-0.7,0.8-0.9c0.7-0.4,1.5-0.4,2.1-0.4   l0.4,0c1,0,2.1-0.1,3.2,0.2c1.6,0.3,3,1.5,4,3.2c0.4,0.8,0.8,1.7,0.9,2.5c0.3,1.5,0.6,3,0.9,4.5l0.3,1.4c0.2,1.1,0.5,2.3,0.7,3.5   c0.1,0.3,0.1,0.7,0.2,1.1c0.2,0.2,0.3,0.4,0.4,0.7c0.7,1.9,1,3.7,0.8,5.3c-0.2,1.5-0.9,2.9-2,3.9c-0.1,0.1-0.2,0.2-0.3,0.3   c2.7,6,1.8,12.8-1.8,17.9l0,0c0.5,0.5,1.1,1.1,1.6,1.6c0.6,0.6,1.1,1.1,1.7,1.6l2.1,2c1.7,1.6,3.3,3.3,5,4.9   C53.6,56.3,54,57.3,54,58.2z"/><ellipse transform="matrix(0.8616 -0.5076 0.5076 0.8616 -8.6618 11.824)" cx="17.4" cy="21.8" rx="3.9" ry="3.9"/></g></svg>